<svg width="154" height="24" viewBox="0 0 154 24" fill="none" xmlns="http://www.w3.org/2000/svg">
<g clip-path="url(#clip0_5_3101)">
<path d="M28.925 13.4655H30.6555C30.6723 14.6517 31.6445 15.5903 33.242 15.5903C34.6101 15.5903 35.5319 14.9636 35.5319 13.9256C35.5319 10.8117 29.2873 13.1185 29.2873 8.47134C29.2873 6.7256 30.7044 5.25809 33.1426 5.25809C35.1039 5.25809 37.0636 6.31286 37.0973 8.71745H35.3011C35.3011 7.58013 34.5261 6.85554 33.1258 6.85554C31.7087 6.85554 31.0499 7.61376 31.0499 8.4377C31.0499 11.2214 37.3602 9.13019 37.3602 13.7926C37.3602 15.7203 35.8285 17.2199 33.1747 17.2199C30.7044 17.2214 28.925 15.6897 28.925 13.4655Z" fill="#0F151A"/>
<path d="M40.2774 14.2724V9.80715H38.7289V8.40689H39.8662C40.1628 8.40689 40.3768 8.19288 40.3768 7.84587V5.95033H42.0079V8.38855H44.5118V9.80562H42.0079V14.2219C42.0079 15.0459 42.3549 15.5396 43.2598 15.5396H44.4293V17.0056H42.9954C41.2986 17.0071 40.2774 16.0685 40.2774 14.2724Z" fill="#0F151A"/>
<path d="M52.7662 11.917C52.6515 10.4663 51.5967 9.62703 50.2622 9.62703C48.9445 9.62703 47.8561 10.5656 47.7246 11.917H52.7662ZM45.9621 12.7241C45.9621 9.98932 47.8072 8.17633 50.2622 8.17633C52.9481 8.17633 54.4798 10.1529 54.4798 12.6079V13.25H47.691C47.7567 14.7496 48.7626 15.7707 50.3432 15.7707C51.4301 15.7707 52.3702 15.2433 52.7157 14.4026H54.3957C53.9509 16.0658 52.4192 17.2199 50.2928 17.2199C47.7094 17.2214 45.9621 15.3106 45.9621 12.7241Z" fill="#0F151A"/>
<path d="M56.1942 14.866V4.65143H57.9247V14.7681C57.9247 15.2298 58.1555 15.4774 58.5835 15.4774H58.9458V17.0091H58.2365C56.9356 17.0076 56.1942 16.2173 56.1942 14.866Z" fill="#0F151A"/>
<path d="M60.9064 14.866V4.65143H62.6368V14.7681C62.6368 15.2298 62.8676 15.4774 63.2957 15.4774H63.658V17.0091H62.9502C61.6478 17.0076 60.9064 16.2173 60.9064 14.866Z" fill="#0F151A"/>
<path d="M72.0613 12.7075C72.0613 10.8456 70.9072 9.75868 69.3923 9.75868C67.8269 9.75868 66.74 10.9786 66.74 12.7075C66.74 14.5036 67.8269 15.6563 69.4091 15.6563C71.0554 15.6563 72.0613 14.3386 72.0613 12.7075ZM64.976 12.7243C64.976 10.0552 66.6728 8.17651 69.0789 8.17651C70.7268 8.17651 71.6165 9.19766 71.8962 9.6425H72.0109V8.39053H73.7413V17.0076H72.0445V15.7893H71.9467C71.7158 16.1179 70.8751 17.2231 69.1614 17.2231C66.6896 17.2216 64.976 15.3933 64.976 12.7243Z" fill="#0F151A"/>
<path d="M76.2302 8.39081H77.8949V9.89043H78.0096C78.274 9.19794 79.0965 8.37399 80.3163 8.37399H81.0746V10.054H80.2674C78.8014 10.054 77.9607 11.1577 77.9607 12.7567V17.0079H76.2302V8.39081Z" fill="#0F151A"/>
<path d="M86.8414 13.4655H88.5718C88.5886 14.6517 89.5609 15.5903 91.1583 15.5903C92.5265 15.5903 93.4482 14.9636 93.4482 13.9256C93.4482 10.8117 87.2037 13.1185 87.2037 8.47134C87.2037 6.7256 88.6207 5.25809 91.0589 5.25809C93.0202 5.25809 94.98 6.31286 95.0136 8.71745H93.2174C93.2174 7.58013 92.4439 6.85554 91.0421 6.85554C89.6251 6.85554 88.9662 7.61376 88.9662 8.4377C88.9662 11.2245 95.2765 9.13172 95.2765 13.7941C95.2765 15.7218 93.7448 17.2214 91.0911 17.2214C88.6207 17.2214 86.8414 15.6897 86.8414 13.4655Z" fill="#0F151A"/>
<path d="M103.547 11.917C103.433 10.4663 102.378 9.62703 101.043 9.62703C99.7258 9.62703 98.6374 10.5656 98.5059 11.917H103.547ZM96.7433 12.7241C96.7433 9.98932 98.5884 8.17633 101.043 8.17633C103.729 8.17633 105.261 10.1529 105.261 12.6079V13.25H98.4723C98.538 14.7496 99.5423 15.7707 101.124 15.7707C102.211 15.7707 103.152 15.2433 103.497 14.4026H105.177C104.732 16.0658 103.2 17.2199 101.074 17.2199C98.4891 17.2214 96.7433 15.3106 96.7433 12.7241Z" fill="#0F151A"/>
<path d="M106.745 12.7075C106.745 10.1531 108.59 8.17651 111.21 8.17651C113.252 8.17651 114.983 9.42849 115.379 11.405H113.599C113.303 10.416 112.364 9.75715 111.227 9.75715C109.596 9.75715 108.524 11.0428 108.524 12.7059C108.524 14.4028 109.645 15.6547 111.259 15.6547C112.363 15.6547 113.318 14.9959 113.615 14.0236H115.379C115 16.0017 113.252 17.2216 111.227 17.2216C108.558 17.2216 106.745 15.245 106.745 12.7075Z" fill="#0F151A"/>
<path d="M117.356 13.9259V8.39061H119.086V13.614C119.086 14.8324 119.927 15.6242 121.014 15.6242C122.217 15.6242 123.107 14.7025 123.107 13.449V8.39061H124.837V17.0077H123.157V15.8535H123.043C122.697 16.5628 121.807 17.2217 120.522 17.2217C118.557 17.2217 117.356 15.7878 117.356 13.9259Z" fill="#0F151A"/>
<path d="M127.373 8.39081H129.038V9.89043H129.153C129.417 9.19794 130.239 8.37399 131.459 8.37399H132.218V10.054H131.41C129.944 10.054 129.104 11.1577 129.104 12.7567V17.0079H127.373V8.39081Z" fill="#0F151A"/>
<path d="M134.212 8.3908H135.942V17.0079H134.212V8.3908ZM133.947 5.93577C133.947 5.30902 134.426 4.84889 135.085 4.84889C135.76 4.84889 136.239 5.31055 136.239 5.93577C136.239 6.59462 135.76 7.03947 135.085 7.03947C134.426 7.03947 133.947 6.59462 133.947 5.93577Z" fill="#0F151A"/>
<path d="M139.269 14.2724V9.80715H137.721V8.40689H138.858C139.155 8.40689 139.369 8.19288 139.369 7.84587V5.95033H141V8.38855H143.504V9.80562H141V14.2219C141 15.0459 141.345 15.5396 142.252 15.5396H143.421V17.0056H141.987C140.29 17.0071 139.269 16.0685 139.269 14.2724Z" fill="#0F151A"/>
<path d="M145.597 19.2476H146.355C147.145 19.2476 147.607 18.8854 147.871 18.1929L148.185 17.3689L144.707 8.38956H146.586L148.975 15.0454H149.09L151.462 8.38956H153.358L149.403 18.7203C148.909 20.038 148.117 20.7962 146.569 20.7962H145.597V19.2476Z" fill="#0F151A"/>
<path d="M11.0061 0.129901C10.9526 0.105442 10.864 0.105442 10.809 0.129901L0.588313 4.83971C0.53481 4.86417 0.490479 4.93296 0.490479 4.99258C0.490479 4.99258 0.490479 5.93576 0.490479 11.5781C0.490479 19.4919 9.77863 23.8624 10.9068 23.8624C12.0349 23.8624 21.3231 19.4919 21.3231 11.5781C21.3231 5.93576 21.3231 4.99258 21.3231 4.99258C21.3231 4.93296 21.2788 4.86417 21.2253 4.83818L11.0061 0.129901Z" fill="#2761FC"/>
<mask id="mask0_5_3101" style="mask-type:luminance" maskUnits="userSpaceOnUse" x="0" y="0" width="22" height="24">
<path d="M10.9068 0.0840454L0.490479 4.88405C0.490479 4.88405 0.490479 5.93577 0.490479 11.5781C0.490479 19.4919 9.77863 23.8624 10.9068 23.8624C12.0349 23.8624 21.3231 19.4919 21.3231 11.5781C21.3231 5.93577 21.3231 4.88405 21.3231 4.88405L10.9068 0.0840454Z" fill="white"/>
</mask>
<g mask="url(#mask0_5_3101)">
<path d="M21.6181 0.0840454H10.9068V23.8624H21.6181V0.0840454Z" fill="#2152D4"/>
</g>
<path opacity="0.2" d="M14.9746 13.067L9.18552 19.5546C9.02654 19.7335 8.80183 19.8405 8.59546 19.8344C8.53737 19.8435 8.48234 19.8435 8.42884 19.8344C8.18731 19.7564 8.07724 19.5057 8.15979 19.2275L9.83368 14.8463H7.35571C6.69992 14.8463 6.31011 14.3021 6.48591 13.6326C6.54552 13.4017 6.66934 13.177 6.84056 12.9829L12.6281 6.49372C12.8283 6.25067 13.1417 6.13449 13.3832 6.21398C13.6248 6.29194 13.7348 6.54264 13.6523 6.82086L11.9784 11.2035H14.4594C15.1152 11.2035 15.505 11.7477 15.3292 12.4173C15.2681 12.6481 15.1458 12.8728 14.9746 13.067Z" fill="black"/>
<path d="M14.9746 11.627L9.18552 17.9694C9.02654 18.1452 8.80183 18.2476 8.59546 18.243C8.53737 18.2522 8.48234 18.2522 8.42884 18.243C8.18731 18.1666 8.07724 17.922 8.15979 17.6499L9.83368 13.3681H7.35571C6.69992 13.3681 6.31011 12.8361 6.48591 12.1804C6.54552 11.9556 6.66934 11.7355 6.84056 11.5444L12.6281 5.20201C12.8283 4.96354 13.1417 4.85041 13.3832 4.92838C13.6248 5.00481 13.7348 5.2494 13.6523 5.5215L11.9784 9.80481H14.4594C15.1152 9.80481 15.505 10.3368 15.3292 10.9926C15.2681 11.2158 15.1458 11.4374 14.9746 11.627Z" fill="white"/>
<mask id="mask1_5_3101" style="mask-type:luminance" maskUnits="userSpaceOnUse" x="6" y="4" width="10" height="15">
<path d="M14.9746 11.627L9.18552 17.9694C9.02654 18.1452 8.80183 18.2476 8.59546 18.243C8.53737 18.2522 8.48234 18.2522 8.42884 18.243C8.18731 18.1666 8.07724 17.922 8.15979 17.6499L9.83368 13.3681H7.35571C6.69992 13.3681 6.31011 12.8361 6.48591 12.1804C6.54552 11.9556 6.66934 11.7355 6.84056 11.5444L12.6281 5.20201C12.8283 4.96354 13.1417 4.85041 13.3832 4.92838C13.6248 5.00481 13.7348 5.2494 13.6523 5.5215L11.9784 9.80481H14.4594C15.1152 9.80481 15.505 10.3368 15.3292 10.9926C15.2681 11.2158 15.1458 11.4374 14.9746 11.627Z" fill="white"/>
</mask>
<g mask="url(#mask1_5_3101)">
<path d="M15.3277 2.76074H10.9068V19.4201H15.3277V2.76074Z" fill="#DFE7F2"/>
</g>
</g>
<defs>
<clipPath id="clip0_5_3101">
<rect width="153.019" height="24" fill="white" transform="translate(0.490479)"/>
</clipPath>
</defs>
</svg>
