<svg width="33" height="32" viewBox="0 0 33 32" fill="none" xmlns="http://www.w3.org/2000/svg">
<rect x="0.5" width="32" height="32" rx="12" fill="white"/>
<path d="M14.6944 13.8056H14.7017M18.3056 13.8056H18.3128M14.6944 16.6945C14.9298 16.9347 15.2107 17.1255 15.5208 17.2558C15.8308 17.3861 16.1637 17.4532 16.5 17.4532C16.8363 17.4532 17.1692 17.3861 17.4792 17.2558C17.7893 17.1255 18.0702 16.9347 18.3056 16.6945M20.8333 10.1945C21.408 10.1945 21.9591 10.4227 22.3654 10.8291C22.7717 11.2354 23 11.7865 23 12.3611V18.1389C23 18.7135 22.7717 19.2646 22.3654 19.671C21.9591 20.0773 21.408 20.3056 20.8333 20.3056H17.2222L13.6111 22.4722V20.3056H12.1667C11.592 20.3056 11.0409 20.0773 10.6346 19.671C10.2283 19.2646 10 18.7135 10 18.1389V12.3611C10 11.7865 10.2283 11.2354 10.6346 10.8291C11.0409 10.4227 11.592 10.1945 12.1667 10.1945H20.8333Z" stroke="#2761FC" stroke-width="1.33333" stroke-linecap="round" stroke-linejoin="round"/>
</svg>
